<svg width="24" height="24" viewBox="0 0 24 24" fill="none" xmlns="http://www.w3.org/2000/svg">
<g clip-path="url(#clip0_100_243)">
<path fill-rule="evenodd" clip-rule="evenodd" d="M24 12C24 18.6274 18.6274 24 12 24C5.37258 24 0 18.6274 0 12C0 5.37258 5.37258 0 12 0C18.6274 0 24 5.37258 24 12ZM13.0776 8.56734L4.99659 11.8968L4.99579 11.8969C3.57379 12.4517 4.40619 12.9719 4.40619 12.9719C4.40619 12.9719 5.62009 13.3881 6.66049 13.7002C7.70089 14.0123 8.25589 13.6655 8.25589 13.6655L13.1461 10.3707C14.8802 9.19143 14.464 10.1625 14.0478 10.5787C13.1462 11.4804 11.6548 12.9024 10.4062 14.0469C9.85129 14.5324 10.1287 14.9487 10.3715 15.1567C11.0774 15.754 12.7397 16.8401 13.4951 17.3336C13.7046 17.4705 13.8444 17.5618 13.8745 17.5844C14.0478 17.7232 15.0179 18.3474 15.6085 18.2087C16.1991 18.07 16.2685 17.2723 16.2685 17.2723L17.1355 11.8273C17.2119 11.3212 17.2883 10.8256 17.3597 10.363C17.5474 9.14546 17.6999 8.15615 17.7251 7.80434C17.8292 6.62524 16.5806 7.11074 16.5806 7.11074C16.5806 7.11074 13.8753 8.22054 13.0776 8.56734Z" fill="white"/>
</g>
<defs>
<clipPath id="clip0_100_243">
<rect width="24" height="24" fill="white"/>
</clipPath>
</defs>
</svg>
