<svg width="80" height="20" viewBox="0 0 80 20" fill="none" xmlns="http://www.w3.org/2000/svg">
<g clip-path="url(#clip0_100_259)">
<path d="M46.6982 6.82334C46.6982 6.36498 46.7782 5.96016 46.937 5.60782C47.0958 5.25654 47.3058 4.96632 47.5659 4.73606C47.826 4.50688 48.117 4.33446 48.4411 4.21665C48.7651 4.09992 49.0913 4.04102 49.4196 4.04102C49.7479 4.04102 50.0741 4.09992 50.3982 4.21665C50.7212 4.33446 51.0132 4.50688 51.2733 4.73606C51.5334 4.96525 51.7424 5.25547 51.9022 5.60782C52.0611 5.95909 52.141 6.36498 52.141 6.82334V7.39952H50.5176V6.82334C50.5176 6.42923 50.4088 6.13901 50.1914 5.95159C49.9739 5.76525 49.717 5.67207 49.4196 5.67207C49.1222 5.67207 48.8653 5.76525 48.6479 5.95159C48.4304 6.13794 48.3217 6.42923 48.3217 6.82334V12.8346C48.3217 13.2287 48.4304 13.52 48.6479 13.7063C48.8653 13.8927 49.1222 13.9859 49.4196 13.9859C49.716 13.9859 49.9739 13.8927 50.1914 13.7063C50.4088 13.52 50.5176 13.2298 50.5176 12.8346V10.6927H49.2288V9.25333H52.141V12.8346C52.141 13.3037 52.0611 13.7117 51.9022 14.0576C51.7434 14.4046 51.5334 14.6916 51.2733 14.9208C51.0132 15.15 50.7212 15.3235 50.3982 15.4402C50.0741 15.5569 49.7479 15.6158 49.4196 15.6158C49.0902 15.6158 48.7641 15.5569 48.4411 15.4402C48.117 15.3235 47.826 15.15 47.5659 14.9208C47.3058 14.6916 47.0969 14.4035 46.937 14.0576C46.7782 13.7117 46.6982 13.3037 46.6982 12.8346V6.82334Z" fill="white"/>
<path d="M53.5743 4.13672H56.1838C58.0929 4.13672 59.048 5.25051 59.048 7.47808C59.048 8.13886 58.9446 8.70646 58.7378 9.18089C58.531 9.65533 58.1675 10.0366 57.6473 10.3236L59.3976 15.5198H57.6793L56.1678 10.6599H55.1967V15.5198H53.5732V4.13672H53.5743ZM55.1978 9.22159H56.1209C56.4076 9.22159 56.6357 9.18196 56.8052 9.10164C56.9747 9.02132 57.1048 8.9078 57.1954 8.75787C57.2849 8.60901 57.3467 8.4248 57.3787 8.20633C57.4107 7.98786 57.4267 7.73511 57.4267 7.44703C57.4267 7.15894 57.4107 6.9062 57.3787 6.68772C57.3467 6.46925 57.2806 6.2829 57.1794 6.12869C57.0781 5.97447 56.9385 5.85988 56.7573 5.78491C56.5771 5.71102 56.3383 5.67353 56.0409 5.67353H55.1978V9.22159Z" fill="white"/>
<path d="M60.2563 6.82335C60.2563 6.36498 60.3363 5.96016 60.4951 5.60782C60.654 5.25654 60.8639 4.96632 61.124 4.73606C61.3841 4.50688 61.6751 4.33446 61.9992 4.21665C62.3232 4.09992 62.6494 4.04102 62.9777 4.04102C63.3061 4.04102 63.6322 4.09992 63.9563 4.21665C64.2793 4.33446 64.5713 4.50688 64.8314 4.73606C65.0915 4.96525 65.3005 5.25547 65.4604 5.60782C65.6192 5.95909 65.6991 6.36498 65.6991 6.82335V12.8346C65.6991 13.3037 65.6192 13.7117 65.4604 14.0576C65.3015 14.4046 65.0915 14.6916 64.8314 14.9208C64.5713 15.15 64.2793 15.3235 63.9563 15.4402C63.6322 15.557 63.3061 15.6159 62.9777 15.6159C62.6484 15.6159 62.3222 15.557 61.9992 15.4402C61.6751 15.3235 61.3841 15.15 61.124 14.9208C60.8639 14.6916 60.655 14.4035 60.4951 14.0576C60.3363 13.7117 60.2563 13.3037 60.2563 12.8346V6.82335ZM61.8787 12.8346C61.8787 13.2287 61.9875 13.52 62.2049 13.7063C62.4224 13.8927 62.6793 13.9859 62.9767 13.9859C63.2741 13.9859 63.531 13.8927 63.7484 13.7063C63.9659 13.52 64.0746 13.2298 64.0746 12.8346V6.82335C64.0746 6.42924 63.9659 6.13901 63.7484 5.95159C63.531 5.76525 63.2741 5.67207 62.9767 5.67207C62.6793 5.67207 62.4224 5.76525 62.2049 5.95159C61.9875 6.13794 61.8787 6.42924 61.8787 6.82335V12.8346Z" fill="white"/>
<path d="M72.3827 12.9624C72.3827 13.3362 72.3134 13.6821 72.1759 14.0012C72.0384 14.3215 71.8498 14.601 71.611 14.8409C71.3722 15.0808 71.094 15.2703 70.7753 15.4085C70.4566 15.5466 70.1176 15.6162 69.7573 15.6162C69.3959 15.6162 69.0569 15.5466 68.7393 15.4085C68.4206 15.2703 68.1424 15.0808 67.9036 14.8409C67.6648 14.601 67.4761 14.3215 67.3386 14.0012C67.2011 13.681 67.1318 13.3351 67.1318 12.9624V4.13779H68.7542V12.8028C68.7542 13.2077 68.8502 13.5065 69.041 13.6982C69.2318 13.8899 69.4705 13.9862 69.7573 13.9862C70.044 13.9862 70.2828 13.8899 70.4736 13.6982C70.6644 13.5065 70.7603 13.2077 70.7603 12.8028V4.13672H72.3838V12.9624H72.3827Z" fill="white"/>
<path d="M73.9092 4.1377H76.3438C76.7894 4.1377 77.1817 4.1966 77.5217 4.31333C77.8607 4.43114 78.1687 4.6389 78.4448 4.93662C78.7209 5.23542 78.9117 5.58455 79.0172 5.98401C79.1228 6.38348 79.1761 6.92431 79.1761 7.6065C79.1761 8.10771 79.1473 8.53609 79.0887 8.89378C79.03 9.25148 78.9053 9.58348 78.7145 9.89298C78.4917 10.2657 78.1943 10.557 77.8234 10.7647C77.4513 10.9725 76.9642 11.0764 76.3598 11.0764H75.5326V15.5208H73.9092V4.1377ZM75.5326 9.54171H76.3118C76.6402 9.54171 76.8949 9.49352 77.0761 9.3982C77.2563 9.30182 77.3885 9.17223 77.4737 9.00623C77.559 8.84131 77.6091 8.64104 77.6251 8.4065C77.6411 8.17196 77.6485 7.91065 77.6485 7.62364C77.6485 7.35697 77.6411 7.10423 77.6251 6.86433C77.6091 6.62444 77.5611 6.41668 77.4823 6.24104C77.4023 6.06541 77.2776 5.92725 77.1081 5.82551C76.9386 5.72484 76.6945 5.67344 76.3758 5.67344H75.5326V9.54171Z" fill="white"/>
<path d="M23.8551 4.04199H25.2185L27.7693 15.5183H26.1331L25.6513 13.0519H23.4213L22.9395 15.5183H21.3032L23.8551 4.04199ZM24.5448 7.34587H24.5128L23.7112 11.5044H25.3475L24.5448 7.34587Z" fill="white"/>
<path d="M33.8658 7.34539H32.2295V6.97484C32.2295 6.59894 32.141 6.27337 31.9652 6.00028C31.7882 5.72611 31.4919 5.58903 31.0751 5.58903C30.8502 5.58903 30.6658 5.63187 30.5219 5.71755C30.378 5.80322 30.265 5.91353 30.185 6.04847C30.1051 6.18234 30.0486 6.3387 30.0166 6.5154C29.9846 6.69318 29.9686 6.87846 29.9686 7.07123C29.9686 7.2972 29.9772 7.48783 29.9931 7.64312C30.0091 7.79947 30.0496 7.93334 30.1136 8.04579C30.1776 8.15824 30.2714 8.25784 30.3939 8.34352C30.5165 8.42919 30.685 8.51594 30.8992 8.60162L32.1496 9.10282C32.5131 9.24312 32.8073 9.40697 33.0322 9.59439C33.2571 9.78287 33.4309 10.0024 33.5534 10.2552C33.676 10.5079 33.7592 10.7981 33.8018 11.1258C33.8444 11.4536 33.8658 11.8273 33.8658 12.2461C33.8658 12.7301 33.8178 13.1789 33.7219 13.5922C33.6259 14.0056 33.4682 14.3612 33.2486 14.6557C33.029 14.9513 32.738 15.1847 32.3745 15.3572C32.011 15.5285 31.5665 15.6153 31.0431 15.6153C30.6476 15.6153 30.2778 15.5457 29.9367 15.4054C29.5945 15.2661 29.3003 15.0744 29.054 14.8335C28.8078 14.5914 28.6127 14.3044 28.4688 13.9714C28.3249 13.6383 28.2524 13.2785 28.2524 12.8918V12.2793H29.8887V12.7955C29.8887 13.0964 29.9772 13.3673 30.153 13.6094C30.33 13.8514 30.6263 13.9724 31.0431 13.9724C31.3213 13.9724 31.5377 13.9317 31.6933 13.8514C31.8479 13.7711 31.9662 13.6576 32.0462 13.513C32.1261 13.3684 32.1773 13.1885 32.1986 12.9732C32.2199 12.758 32.2306 12.5224 32.2306 12.2643C32.2306 11.9633 32.2199 11.7159 32.1986 11.5232C32.1773 11.3293 32.1315 11.174 32.0622 11.0562C31.9929 10.9384 31.8959 10.841 31.7733 10.766C31.6507 10.691 31.4866 10.6107 31.284 10.524L30.1125 10.0399C29.4069 9.74968 28.9336 9.3652 28.6927 8.88756C28.4518 8.40992 28.3313 7.81018 28.3313 7.09051C28.3313 6.66105 28.3899 6.25195 28.5083 5.86534C28.6255 5.47872 28.7993 5.14566 29.0295 4.86614C29.2598 4.58662 29.5508 4.36387 29.9036 4.1968C30.2564 4.0308 30.6679 3.94727 31.1391 3.94727C31.5452 3.94727 31.9172 4.02223 32.254 4.17324C32.5909 4.32424 32.8798 4.52237 33.1207 4.76976C33.3616 5.01715 33.546 5.29345 33.6739 5.59974C33.8018 5.90603 33.8668 6.21982 33.8668 6.54218V7.34539H33.8658Z" fill="white"/>
<path d="M35.1313 4.04102H36.7676V15.5173H35.1313V4.04102Z" fill="white"/>
<path d="M40.1715 4.04102H41.5349L44.0857 15.5173H42.4495L41.9677 13.0509H39.7377L39.2559 15.5173H37.6196L40.1715 4.04102ZM40.8612 7.3449H40.8292L40.0266 11.5034H41.6628L40.8612 7.3449Z" fill="white"/>
<path fill-rule="evenodd" clip-rule="evenodd" d="M0.897461 0.986328H19.0049V19.1786H0.897461V0.986328ZM6.93641 11.1475V3.62305H5.28418V11.1101C5.28418 15.0522 7.23701 16.5419 9.82728 16.5419C12.5679 16.5419 14.6145 14.9387 14.6145 11.0351V3.62305H12.9623V11.1475C12.9623 13.9577 11.7609 15.2022 9.88378 15.2022C8.19424 15.2022 6.93641 13.9952 6.93641 11.1475Z" fill="#FF4E4E"/>
</g>
<defs>
<clipPath id="clip0_100_259">
<rect width="80" height="20" fill="white"/>
</clipPath>
</defs>
</svg>
