<svg width="90" height="10" fill="none" xmlns="http://www.w3.org/2000/svg"><path fill-rule="evenodd" clip-rule="evenodd" d="M62.517 0h-13v1.3h13V0ZM10.402 7.48c0 .71-.55 1.064-1.652 1.064H3.514c-1.101 0-1.652-.364-1.652-1.092V.144H0v7.308C0 9.15 1.171 10 3.514 10H8.75c2.343 0 3.514-.84 3.514-2.52V.144h-1.862V7.48ZM15.805.144h-1.736V10h1.792V3.168L20.817 10h1.526l4.942-6.846V10h1.792V.144H27.48l-5.824 8.05-5.852-8.05Zm15.094 0h1.862V10h-1.862V.144ZM36.395 10V2.496L46.21 10h1.47V.144h-1.764v7.56L36.101.144h-1.47V10h1.764Zm27.937 0V.144h7.798c2.343 0 3.514.71 3.514 2.128v1.204c0 1.185-.812 1.876-2.436 2.072L75.546 10h-1.988l-2.31-4.396h-5.054V10h-1.862Zm1.862-8.4v2.548h5.936c1.102 0 1.652-.224 1.652-.672V2.272c0-.448-.55-.672-1.652-.672h-5.936Zm23.292 4.55c0-1.419-1.172-2.128-3.514-2.128h-5.236c-1.102 0-1.652-.224-1.652-.672V2.272c0-.448.55-.672 1.652-.672h8.134V.144h-8.134c-2.343 0-3.514.71-3.514 2.128V3.35c0 1.418 1.171 2.128 3.514 2.128h5.236c1.101 0 1.652.224 1.652.672V7.9c0 .43-.551.644-1.652.644h-8.414V10h8.414c2.342 0 3.514-.7 3.514-2.1V6.15ZM49.517 4.3h13v1.3h-13V4.3Zm13 4.3h-13v1.3h13V8.6Z" fill="#000"/></svg>