<svg width="116" height="113" viewBox="0 0 116 113" fill="none" xmlns="http://www.w3.org/2000/svg">
<path opacity="0.04" d="M44.448 98.336C37.8912 96.1487 32.2959 93.1015 27.6621 89.1944C23.0081 85.348 19.3662 80.8947 16.7364 75.8345C14.1672 70.7945 12.6708 65.3702 12.2471 59.5616C11.8842 53.7733 12.7052 47.8739 14.7102 41.8635C16.6949 35.9138 19.5599 30.7638 23.305 26.4134C27.1108 22.0832 31.5843 18.6841 36.7255 16.2162C41.8667 13.7483 47.4832 12.3834 53.5751 12.1217C59.6669 11.86 66.0216 12.8329 72.6391 15.0404C79.0138 17.167 84.5079 20.1129 89.1214 23.8784C93.7552 27.5831 97.3871 31.8644 100.017 36.7222C102.647 41.5801 104.184 46.7818 104.628 52.3272C105.092 57.812 104.372 63.4078 102.469 69.1146C100.666 74.5179 98.3376 78.8687 95.4832 82.1669C92.6895 85.4854 89.5622 87.6806 86.1011 88.7524C82.6401 89.8243 79.0275 89.7324 75.2634 88.4767C71.1351 87.0996 68.2617 84.7917 66.6434 81.5532C65.025 78.3146 64.9956 74.358 66.555 69.6832L67.9525 65.4941L69.8661 60.6677L73.4514 47.1896L76.3678 38.4472L88.7528 42.5787L78.9101 72.0843C78.1811 74.2699 78.0997 75.9295 78.6661 77.063C79.2326 78.1964 80.1229 78.9657 81.3371 79.3708C82.7335 79.8366 84.0996 79.6851 85.4355 78.9163C86.8321 78.1678 88.1783 76.7615 89.4741 74.6975C90.7901 72.5728 92.0354 69.7498 93.21 66.2285C94.7492 61.6145 95.3372 57.1216 94.9739 52.75C94.6713 48.3987 93.468 44.3203 91.3641 40.515C89.3209 36.7299 86.4477 33.4101 82.7447 30.5556C79.1227 27.6607 74.7922 25.3727 69.7531 23.6918C64.7141 22.0108 59.8267 21.2912 55.0908 21.533C50.3549 21.7748 46.0034 22.8869 42.0361 24.8694C38.0892 26.7912 34.6278 29.4821 31.6519 32.9422C28.7368 36.4226 26.4893 40.5305 24.9096 45.266C23.2894 50.1228 22.5901 54.8484 22.8117 59.4426C23.0535 63.9761 24.1454 68.186 26.0875 72.0722C28.0699 76.0394 30.8519 79.5312 34.4335 82.5476C38.015 85.564 42.3253 87.9126 47.3643 89.5936C50.2784 90.5657 53.395 91.2343 56.7141 91.5993C60.0129 92.0251 63.3219 92.0157 66.6411 91.5713L66.7604 100.922C63.5019 101.386 59.8691 101.355 55.8619 100.828C51.8953 100.382 48.0906 99.5511 44.448 98.336ZM47.2149 79.1201C43.3294 77.8239 40.0917 75.6981 37.5019 72.7427C34.993 69.7468 33.3747 66.2047 32.647 62.1163C31.9396 57.9673 32.3454 53.6161 33.8643 49.0627C35.3833 44.5094 37.6306 40.8063 40.6063 37.9533C43.6428 35.1206 47.0534 33.2898 50.8382 32.4609C54.704 31.5915 58.6099 31.815 62.5562 33.1314C66.5631 34.4681 69.6895 36.523 71.9353 39.2962C74.1812 42.0694 75.4959 45.4091 75.8796 49.3152C76.2632 53.2214 75.6449 57.6029 74.0247 62.4598C72.4248 67.2559 70.3191 71.1413 67.7076 74.1157C65.0962 77.0902 62.0599 79.0122 58.5989 79.8816C55.1987 80.7714 51.404 80.5175 47.2149 79.1201ZM53.5315 69.5892C55.7171 70.3182 57.8219 70.4806 59.8459 70.0763C61.9508 69.6316 63.8028 68.6302 65.402 67.0722C67.0012 65.5142 68.2363 63.4299 69.1071 60.8193C69.9982 58.148 70.2619 55.7397 69.8981 53.5943C69.5343 51.4489 68.6341 49.5969 67.1975 48.0382C65.8216 46.4998 64.0409 45.366 61.8553 44.6369C59.6697 43.9078 57.5649 43.7454 55.541 44.1497C53.517 44.554 51.7055 45.5352 50.1062 47.0932C48.5273 48.5905 47.3024 50.6444 46.4315 53.255C45.5607 55.8656 45.297 58.2739 45.6406 60.48C46.0044 62.6254 46.8641 64.4976 48.2197 66.0968C49.5753 67.6959 51.3459 68.8601 53.5315 69.5892Z" fill="black"/>
</svg>
