<svg width="108" height="12" viewBox="0 0 108 12" fill="none" xmlns="http://www.w3.org/2000/svg">
<path fill-rule="evenodd" clip-rule="evenodd" d="M75.0267 0H59.4257V1.5601H75.0267V0ZM12.4832 8.97566C12.4832 9.82691 11.8224 10.2525 10.5007 10.2525H4.21708C2.89539 10.2525 2.23455 9.81571 2.23455 8.94205V0.171875H0V8.94205C0 10.9806 1.40569 11.9999 4.21708 11.9999H10.5007C13.3121 11.9999 14.7178 10.9918 14.7178 8.97566V0.171875H12.4832V8.97566ZM18.9673 0.171875H16.8839V11.9999H19.0345V3.80091L24.9821 11.9999H26.8134L32.7442 3.78411V11.9999H34.8947V0.171875H32.9794L25.9901 9.83251L18.9673 0.171875ZM37.0814 0.171875H39.3159V11.9999H37.0814V0.171875ZM43.6775 11.9999V2.99446L55.4551 11.9999H57.2192V0.171875H55.1022V9.24447L43.3247 0.171875H41.5606V11.9999H43.6775ZM77.2043 11.9999V0.171875H86.5625C89.3739 0.171875 90.7796 1.02313 90.7796 2.72564V4.17054C90.7796 5.59303 89.8051 6.42189 87.8562 6.6571L90.662 11.9999H88.2762L85.5041 6.72431H79.4389V11.9999H77.2043ZM79.4389 1.91919V4.97699H86.5625C87.8842 4.97699 88.545 4.70817 88.545 4.17054V2.72564C88.545 2.18801 87.8842 1.91919 86.5625 1.91919H79.4389ZM107.39 7.37955C107.39 5.67704 105.985 4.82578 103.173 4.82578H96.8895C95.5679 4.82578 94.907 4.55696 94.907 4.01933V2.72564C94.907 2.18801 95.5679 1.91919 96.8895 1.91919H106.651V0.171875H96.8895C94.0782 0.171875 92.6725 1.02313 92.6725 2.72564V4.01933C92.6725 5.72184 94.0782 6.5731 96.8895 6.5731H103.173C104.495 6.5731 105.156 6.84192 105.156 7.37955V9.47969C105.156 9.99492 104.495 10.2525 103.173 10.2525H93.0757V11.9999H103.173C105.985 11.9999 107.39 11.1598 107.39 9.47969V7.37955ZM59.4257 5.16038H75.0267V6.72048H59.4257V5.16038ZM75.0268 10.3203H59.4258V11.8804H75.0268V10.3203Z" fill="white"/>
</svg>
