<svg width="24" height="24" viewBox="0 0 24 24" fill="none" xmlns="http://www.w3.org/2000/svg">
<g clip-path="url(#clip0_100_237)">
<path fill-rule="evenodd" clip-rule="evenodd" d="M24 12C24 18.6274 18.6274 24 12 24C5.37258 24 0 18.6274 0 12C0 5.37258 5.37258 0 12 0C18.6274 0 24 5.37258 24 12ZM15.0778 8.92905C13.4638 9.01303 12.061 9.5025 10.9212 10.6078C9.76955 11.7243 9.24409 13.0928 9.38805 14.7891C9.21002 14.767 9.03652 14.7443 8.86618 14.7221C8.43275 14.6654 8.01986 14.6114 7.60532 14.5764C7.40537 14.5596 7.16863 14.5836 6.99987 14.6787C6.60028 14.9045 6.21206 15.1509 5.7912 15.4181L5.79111 15.4182C5.62151 15.5258 5.44661 15.6369 5.26353 15.7513C5.29913 15.5898 5.33094 15.4346 5.36177 15.2841C5.43205 14.9411 5.49724 14.6229 5.59064 14.3132C5.68902 13.9853 5.64343 13.8038 5.34191 13.5902C3.40481 12.2226 2.58823 10.1759 3.19927 8.06848C3.76392 6.11939 5.15236 4.9365 7.03906 4.32066C9.61439 3.47928 12.508 4.33745 14.074 6.38172C14.6387 7.11993 14.9858 7.94931 15.0778 8.92905ZM7.6501 8.27242C7.6653 7.88693 7.33099 7.53982 6.93429 7.52782C6.528 7.51582 6.19449 7.82614 6.18249 8.22684C6.17049 8.63233 6.48081 8.95785 6.8895 8.96824C7.295 8.97864 7.63491 8.66752 7.6501 8.27242ZM11.5251 7.52782C11.1268 7.53502 10.7909 7.87413 10.7973 8.26123C10.8045 8.66192 11.1348 8.97624 11.5443 8.97144C11.9546 8.96664 12.2665 8.64913 12.2625 8.23963C12.2593 7.83814 11.9306 7.52062 11.5251 7.52782ZM18.2371 18.7586C18.3891 18.8388 18.543 18.9199 18.701 18.9901C18.6899 18.9464 18.6817 18.9026 18.6736 18.8596C18.6569 18.7699 18.6408 18.6841 18.6002 18.611C18.2811 18.0288 18.4603 17.6657 18.9577 17.2242C20.6773 15.699 20.8428 13.2892 19.4344 11.4737C17.8212 9.39265 14.4645 8.89278 12.1755 10.3924C9.60099 12.0799 9.28267 15.2367 11.5085 17.2954C12.6786 18.3783 14.0982 18.8198 15.6826 18.6574C15.8973 18.6356 16.1125 18.5738 16.3261 18.5125C16.6297 18.4253 16.9302 18.339 17.2222 18.3695C17.567 18.4054 17.8973 18.5795 18.2371 18.7586ZM13.4896 12.783C13.4776 13.1045 13.2096 13.3588 12.8841 13.3588C12.561 13.358 12.2915 13.0997 12.2803 12.779C12.2683 12.4439 12.5506 12.1543 12.8881 12.1559C13.2288 12.1575 13.5024 12.4431 13.4896 12.783ZM16.0369 12.7326C16.0497 12.4135 16.3176 12.1551 16.6335 12.1575C16.9695 12.1599 17.235 12.4423 17.2214 12.7846C17.2102 13.1093 16.9519 13.3556 16.6255 13.3548C16.288 13.354 16.0233 13.0733 16.0369 12.7326Z" fill="white"/>
</g>
<defs>
<clipPath id="clip0_100_237">
<rect width="24" height="24" fill="white"/>
</clipPath>
</defs>
</svg>
